HIERARCHY
ROOT Hips
{
  OFFSET 0.0 0.0 0.0
  CHANNELS 6 Xposition Yposition Zposition Zrotation Xrotation Yrotation
  JOINT Spine
  {
    OFFSET 0.0 10.0 0.0
    CHANNELS 3 Zrotation Xrotation Yrotation
    JOINT Chest
    {
      OFFSET 0.0 10.0 0.0
      CHANNELS 3 Zrotation Xrotation Yrotation
      JOINT Neck
      {
        OFFSET 0.0 5.0 0.0
        CHANNELS 3 Zrotation Xrotation Yrotation
        JOINT Head
        {
          OFFSET 0.0 5.0 0.0
          CHANNELS 3 Zrotation Xrotation Yrotation
          End Site
          {
            OFFSET 0.0 3.0 0.0
          }
        }
      }
      JOINT LeftShoulder
      {
        OFFSET 5.0 3.0 0.0
        CHANNELS 3 Zrotation Xrotation Yrotation
        JOINT LeftArm
        {
          OFFSET 10.0 0.0 0.0
          CHANNELS 3 Zrotation Xrotation Yrotation
          JOINT LeftForeArm
          {
            OFFSET 10.0 0.0 0.0
            CHANNELS 3 Zrotation Xrotation Yrotation
            JOINT LeftHand
            {
              OFFSET 8.0 0.0 0.0
              CHANNELS 3 Zrotation Xrotation Yrotation
              End Site
              {
                OFFSET 3.0 0.0 0.0
              }
            }
          }
        }
      }
      JOINT RightShoulder
      {
        OFFSET -5.0 3.0 0.0
        CHANNELS 3 Zrotation Xrotation Yrotation
        JOINT RightArm
        {
          OFFSET -10.0 0.0 0.0
          CHANNELS 3 Zrotation Xrotation Yrotation
          JOINT RightForeArm
          {
            OFFSET -10.0 0.0 0.0
            CHANNELS 3 Zrotation Xrotation Yrotation
            JOINT RightHand
            {
              OFFSET -8.0 0.0 0.0
              CHANNELS 3 Zrotation Xrotation Yrotation
              End Site
              {
                OFFSET -3.0 0.0 0.0
              }
            }
          }
        }
      }
    }
  }
  JOINT LeftHip
  {
    OFFSET 5.0 -2.0 0.0
    CHANNELS 3 Zrotation Xrotation Yrotation
    JOINT LeftThigh
    {
      OFFSET 0.0 -20.0 0.0
      CHANNELS 3 Zrotation Xrotation Yrotation
      JOINT LeftShin
      {
        OFFSET 0.0 -20.0 0.0
        CHANNELS 3 Zrotation Xrotation Yrotation
        JOINT LeftFoot
        {
          OFFSET 0.0 -5.0 0.0
          CHANNELS 3 Zrotation Xrotation Yrotation
          End Site
          {
            OFFSET 0.0 -2.0 5.0
          }
        }
      }
    }
  }
  JOINT RightHip
  {
    OFFSET -5.0 -2.0 0.0
    CHANNELS 3 Zrotation Xrotation Yrotation
    JOINT RightThigh
    {
      OFFSET 0.0 -20.0 0.0
      CHANNELS 3 Zrotation Xrotation Yrotation
      JOINT RightShin
      {
        OFFSET 0.0 -20.0 0.0
        CHANNELS 3 Zrotation Xrotation Yrotation
        JOINT RightFoot
        {
          OFFSET 0.0 -5.0 0.0
          CHANNELS 3 Zrotation Xrotation Yrotation
          End Site
          {
            OFFSET 0.0 -2.0 5.0
          }
        }
      }
    }
  }
}
MOTION
Frames: 9
Frame Time: 0.033333
0.000000 40.000000 0.000000 0.000000 0.000000 0.000000 0.000000 0.000000 0.000000 0.000000 0.000000 0.000000 0.000000 0.000000 0.000000 0.000000 0.000000 0.000000 0.000000 0.000000 -10.000000 0.000000 0.000000 -0.000000 0.000000 0.000000 -0.000000 0.000000 0.000000 0.000000 0.000000 0.000000 10.000000 0.000000 0.000000 0.000000 0.000000 0.000000 0.000000 0.000000 0.000000 0.000000 0.000000 0.000000 0.000000 0.000000 0.000000 0.000000 0.000000 0.000000 -0.000000 0.000000 0.000000 0.000000 0.000000 0.000000 0.000000 0.000000 0.000000 -0.000000 0.000000 0.000000 0.000000 0.000000 0.000000 0.000000
0.253866 40.502296 0.486197 0.632962 0.000000 0.000000 0.000000 0.000000 0.000000 0.000000 0.316481 0.000000 0.000000 0.000000 0.000000 0.000000 0.189889 0.000000 0.000000 0.000000 -10.000000 0.000000 0.000000 -2.260332 0.000000 0.000000 -2.260332 0.000000 0.000000 0.000000 0.000000 0.000000 10.000000 0.000000 0.000000 2.260332 0.000000 0.000000 0.000000 0.000000 0.000000 0.000000 0.000000 0.000000 0.000000 0.000000 0.000000 7.534440 0.000000 0.000000 0.000000 0.000000 0.000000 0.000000 0.000000 0.000000 0.000000 0.000000 0.000000 -7.534440 0.000000 0.000000 7.534440 0.000000 0.000000 0.000000
0.507732 40.972393 0.849725 1.255740 0.000000 0.000000 0.000000 0.000000 0.000000 0.000000 0.627870 0.000000 0.000000 0.000000 0.000000 0.000000 0.376722 0.000000 0.000000 0.000000 -10.000000 0.000000 0.000000 -4.375771 0.000000 0.000000 -4.375771 0.000000 0.000000 0.000000 0.000000 0.000000 10.000000 0.000000 0.000000 4.375771 0.000000 0.000000 0.000000 0.000000 0.000000 0.000000 0.000000 0.000000 0.000000 0.000000 0.000000 14.585902 0.000000 0.000000 0.000000 0.000000 0.000000 0.000000 0.000000 0.000000 0.000000 0.000000 0.000000 -14.585902 0.000000 0.000000 14.585902 0.000000 0.000000 0.000000
0.761598 41.380158 0.998867 1.858312 0.000000 0.000000 0.000000 0.000000 0.000000 0.000000 0.929156 0.000000 0.000000 0.000000 0.000000 0.000000 0.557494 0.000000 0.000000 0.000000 -10.000000 0.000000 0.000000 -6.210711 0.000000 0.000000 -6.210711 0.000000 0.000000 0.000000 0.000000 0.000000 10.000000 0.000000 0.000000 6.210711 0.000000 0.000000 0.000000 0.000000 0.000000 0.000000 0.000000 0.000000 0.000000 0.000000 0.000000 20.702370 0.000000 0.000000 0.000000 0.000000 0.000000 0.000000 0.000000 0.000000 0.000000 0.000000 0.000000 -20.702370 0.000000 0.000000 20.702370 0.000000 0.000000 0.000000
1.015464 41.699451 0.895994 2.430984 0.000000 0.000000 0.000000 0.000000 0.000000 0.000000 1.215492 0.000000 0.000000 0.000000 0.000000 0.000000 0.729295 0.000000 0.000000 0.000000 -10.000000 0.000000 0.000000 -7.647529 0.000000 0.000000 -7.647529 0.000000 0.000000 0.000000 0.000000 0.000000 10.000000 0.000000 0.000000 7.647529 0.000000 0.000000 0.000000 0.000000 0.000000 0.000000 0.000000 0.000000 0.000000 0.000000 0.000000 25.491763 0.000000 0.000000 0.000000 0.000000 0.000000 0.000000 0.000000 0.000000 0.000000 0.000000 0.000000 -25.491763 0.000000 0.000000 25.491763 0.000000 0.000000 0.000000
1.269330 41.909804 0.567060 2.964540 0.000000 0.000000 0.000000 0.000000 0.000000 0.000000 1.482270 0.000000 0.000000 0.000000 0.000000 0.000000 0.889362 0.000000 0.000000 0.000000 -10.000000 0.000000 0.000000 -8.594120 0.000000 0.000000 -8.594120 0.000000 0.000000 0.000000 0.000000 0.000000 10.000000 0.000000 0.000000 8.594120 0.000000 0.000000 0.000000 0.000000 0.000000 0.000000 0.000000 0.000000 0.000000 0.000000 0.000000 28.647067 0.000000 0.000000 0.000000 0.000000 0.000000 0.000000 0.000000 0.000000 0.000000 0.000000 0.000000 -28.647067 0.000000 0.000000 28.647067 0.000000 0.000000 0.000000
1.523196 41.997735 0.095056 3.450395 0.000000 0.000000 0.000000 0.000000 0.000000 0.000000 1.725198 0.000000 0.000000 0.000000 0.000000 0.000000 1.035119 0.000000 0.000000 0.000000 -10.000000 0.000000 0.000000 -8.989806 0.000000 0.000000 -8.989806 0.000000 0.000000 0.000000 0.000000 0.000000 10.000000 0.000000 0.000000 8.989806 0.000000 0.000000 0.000000 0.000000 0.000000 0.000000 0.000000 0.000000 0.000000 0.000000 0.000000 29.966020 0.000000 0.000000 0.000000 0.000000 0.000000 0.000000 0.000000 0.000000 0.000000 0.000000 0.000000 -29.966020 0.000000 0.000000 29.966020 0.000000 0.000000 0.000000
1.777063 41.957605 -0.400931 3.880732 0.000000 0.000000 0.000000 0.000000 0.000000 0.000000 1.940366 0.000000 0.000000 0.000000 0.000000 0.000000 1.164220 0.000000 0.000000 0.000000 -10.000000 0.000000 0.000000 -8.809222 0.000000 0.000000 -8.809222 0.000000 0.000000 0.000000 0.000000 0.000000 10.000000 0.000000 0.000000 8.809222 0.000000 0.000000 0.000000 0.000000 0.000000 0.000000 0.000000 0.000000 0.000000 0.000000 0.000000 29.364073 0.000000 0.000000 0.000000 0.000000 0.000000 0.000000 0.000000 0.000000 0.000000 0.000000 0.000000 -29.364073 0.000000 0.000000 29.364073 0.000000 0.000000 0.000000
2.030929 41.791988 -0.795762 4.248627 0.000000 0.000000 0.000000 0.000000 0.000000 0.000000 2.124314 0.000000 0.000000 0.000000 0.000000 0.000000 1.274588 0.000000 0.000000 0.000000 -10.000000 0.000000 0.000000 -8.063944 0.000000 0.000000 -8.063944 0.000000 0.000000 0.000000 0.000000 0.000000 10.000000 0.000000 0.000000 8.063944 0.000000 0.000000 0.000000 0.000000 0.000000 0.000000 0.000000 0.000000 0.000000 0.000000 0.000000 26.879813 0.000000 0.000000 0.000000 0.000000 0.000000 0.000000 0.000000 0.000000 0.000000 0.000000 0.000000 -26.879813 0.000000 0.000000 26.879813 0.000000 0.000000 0.000000
